<svg width="45" height="46" viewBox="0 0 45 46" fill="none" xmlns="http://www.w3.org/2000/svg">
<path d="M39.8036 37.6701C42.1133 34.8318 43.7197 31.467 44.487 27.8604C45.2542 24.2538 45.1597 20.5115 44.2114 16.9502C43.2632 13.3888 41.489 10.1131 39.0391 7.40012C36.5892 4.68716 33.5356 2.61679 30.1366 1.36414C26.7376 0.11149 23.0932 -0.286586 19.5117 0.203586C15.9303 0.693758 12.517 2.05776 9.56084 4.1802C6.60464 6.30265 4.19241 9.12109 2.52822 12.3971C0.864035 15.6731 -0.00315642 19.3103 8.63274e-06 23.0011C0.00136065 28.3663 1.85247 33.5597 5.22856 37.6701L5.1964 37.698C5.30898 37.836 5.43764 37.9543 5.55344 38.0906C5.69819 38.2598 5.85419 38.4192 6.00376 38.5834C6.45194 39.0839 6.91834 39.5603 7.40297 40.0126C7.55308 40.1484 7.70319 40.2809 7.8533 40.4101C8.36795 40.8646 8.89869 41.2927 9.4455 41.6947C9.51627 41.7439 9.5806 41.808 9.65137 41.8589V41.8392C13.4181 44.5468 17.9117 46 22.5177 46C27.1237 46 31.6173 44.5468 35.384 41.8392V41.8589C35.4548 41.808 35.5175 41.7439 35.5899 41.6947C36.1367 41.2917 36.6674 40.8635 37.1821 40.4101C37.3322 40.2798 37.4823 40.1473 37.6324 40.0126C38.116 39.5603 38.5824 39.0839 39.0316 38.5834C39.1812 38.4192 39.3356 38.2598 39.482 38.0906C39.5961 37.9543 39.7264 37.836 39.839 37.6964L39.8036 37.6701ZM22.5161 9.85972C23.9475 9.85972 25.3468 10.2933 26.5369 11.1055C27.7271 11.9177 28.6547 13.0722 29.2025 14.4229C29.7503 15.7736 29.8936 17.2599 29.6143 18.6938C29.3351 20.1278 28.6458 21.4449 27.6336 22.4787C26.6215 23.5125 25.3319 24.2165 23.928 24.5017C22.5241 24.7869 21.0689 24.6405 19.7465 24.0811C18.424 23.5216 17.2937 22.5741 16.4985 21.3585C15.7032 20.1429 15.2788 18.7137 15.2788 17.2517C15.2788 15.2913 16.0413 13.4111 17.3985 12.0248C18.7558 10.6385 20.5966 9.85972 22.5161 9.85972ZM9.66102 37.6701C9.68891 35.5132 10.5471 33.4543 12.0499 31.9387C13.5527 30.4232 15.5793 29.5729 17.6912 29.5718H27.341C29.4529 29.5729 31.4795 30.4232 32.9823 31.9387C34.4851 33.4543 35.3433 35.5132 35.3712 37.6701C31.8439 40.9166 27.2642 42.7132 22.5161 42.7132C17.768 42.7132 13.1883 40.9166 9.66102 37.6701Z" fill="black"/>
</svg>
