<svg width="45" height="45" viewBox="0 0 45 45" fill="none" xmlns="http://www.w3.org/2000/svg">
<path d="M22.5 41.25C19.9063 41.25 17.4688 40.7575 15.1875 39.7725C12.9063 38.7875 10.9219 37.4519 9.23438 35.7656C7.54688 34.0794 6.21125 32.095 5.2275 29.8125C4.24375 27.53 3.75125 25.0925 3.75 22.5C3.74875 19.9075 4.24125 17.47 5.2275 15.1875C6.21375 12.905 7.54938 10.9206 9.23438 9.23438C10.9194 7.54813 12.9038 6.2125 15.1875 5.2275C17.4713 4.2425 19.9088 3.75 22.5 3.75C25.0913 3.75 27.5288 4.2425 29.8125 5.2275C32.0963 6.2125 34.0806 7.54813 35.7656 9.23438C37.4506 10.9206 38.7869 12.905 39.7744 15.1875C40.7619 17.47 41.2538 19.9075 41.25 22.5C41.2463 25.0925 40.7538 27.53 39.7725 29.8125C38.7913 32.095 37.4556 34.0794 35.7656 35.7656C34.0756 37.4519 32.0913 38.7881 29.8125 39.7744C27.5338 40.7606 25.0963 41.2525 22.5 41.25ZM22.5 37.5C26.6875 37.5 30.2344 36.0469 33.1406 33.1406C36.0469 30.2344 37.5 26.6875 37.5 22.5C37.5 22.2812 37.4925 22.0544 37.4775 21.8194C37.4625 21.5844 37.4544 21.3894 37.4531 21.2344C37.2969 22.1406 36.875 22.8906 36.1875 23.4844C35.5 24.0781 34.6875 24.375 33.75 24.375H30C28.9688 24.375 28.0863 24.0081 27.3525 23.2744C26.6188 22.5406 26.2513 21.6575 26.25 20.625V18.75H18.75V15C18.75 13.9687 19.1175 13.0862 19.8525 12.3525C20.5875 11.6187 21.47 11.2512 22.5 11.25H24.375C24.375 10.5313 24.5706 9.89875 24.9619 9.3525C25.3531 8.80625 25.8294 8.36063 26.3906 8.01563C25.7656 7.85938 25.1331 7.73437 24.4931 7.64062C23.8531 7.54687 23.1888 7.5 22.5 7.5C18.3125 7.5 14.7656 8.95312 11.8594 11.8594C8.95313 14.7656 7.5 18.3125 7.5 22.5H16.875C18.9375 22.5 20.7031 23.2344 22.1719 24.7031C23.6406 26.1719 24.375 27.9375 24.375 30V31.875H18.75V37.0312C19.375 37.1875 19.9925 37.305 20.6025 37.3837C21.2125 37.4625 21.845 37.5012 22.5 37.5Z" fill="#16B013"/>
</svg>
