<svg width="58" height="58" viewBox="0 0 58 58" fill="none" xmlns="http://www.w3.org/2000/svg">
<path d="M29 50.75C23.4417 50.75 18.5987 48.9077 14.471 45.2231C10.3433 41.5385 7.97661 36.9363 7.37083 31.4167H12.325C12.8889 35.6056 14.7521 39.0694 17.9147 41.8083C21.0774 44.5472 24.7724 45.9167 29 45.9167C33.7125 45.9167 37.7105 44.2757 40.9939 40.9939C44.2774 37.7121 45.9183 33.7141 45.9167 29C45.9151 24.2859 44.2741 20.2887 40.9939 17.0085C37.7137 13.7283 33.7157 12.0866 29 12.0833C26.2208 12.0833 23.6229 12.7278 21.2062 14.0167C18.7896 15.3056 16.7556 17.0778 15.1042 19.3333H21.75V24.1667H7.25V9.66667H12.0833V15.3458C14.1375 12.7681 16.6452 10.7743 19.6064 9.36458C22.5676 7.95486 25.6988 7.25 29 7.25C32.0208 7.25 34.8507 7.82436 37.4897 8.97308C40.1287 10.1218 42.4246 11.6717 44.3772 13.6228C46.3299 15.5738 47.8806 17.8696 49.0293 20.5103C50.1781 23.1509 50.7516 25.9808 50.75 29C50.7484 32.0192 50.1748 34.8491 49.0293 37.4897C47.8838 40.1304 46.3331 42.4262 44.3772 44.3773C42.4214 46.3283 40.1255 47.879 37.4897 49.0293C34.854 50.1797 32.0241 50.7532 29 50.75ZM35.7667 39.15L26.5833 29.9667V16.9167H31.4167V28.0333L39.15 35.7667L35.7667 39.15Z" fill="black"/>
</svg>
