<svg width="45" height="45" viewBox="0 0 45 45" fill="none" xmlns="http://www.w3.org/2000/svg">
<mask id="mask0_92_2100" style="mask-type:luminance" maskUnits="userSpaceOnUse" x="2" y="2" width="41" height="40">
<path d="M9.24187 30.7097C5.84812 31.7278 3.75 33.1341 3.75 34.6875C3.75 37.7944 12.1444 40.3125 22.5 40.3125C32.8556 40.3125 41.25 37.7944 41.25 34.6875C41.25 33.1341 39.1509 31.7278 35.7581 30.7097" stroke="white" stroke-width="2" stroke-linecap="round" stroke-linejoin="round"/>
<path d="M22.5 32.8125C22.5 32.8125 34.6875 24.8475 34.6875 15.6394C34.6875 9.07312 29.2312 3.75 22.5 3.75C15.7688 3.75 10.3125 9.07312 10.3125 15.6394C10.3125 24.8475 22.5 32.8125 22.5 32.8125Z" fill="white" stroke="white" stroke-width="2" stroke-linejoin="round"/>
<path d="M22.5 20.625C23.7432 20.625 24.9355 20.1311 25.8146 19.2521C26.6936 18.373 27.1875 17.1807 27.1875 15.9375C27.1875 14.6943 26.6936 13.502 25.8146 12.6229C24.9355 11.7439 23.7432 11.25 22.5 11.25C21.2568 11.25 20.0645 11.7439 19.1854 12.6229C18.3064 13.502 17.8125 14.6943 17.8125 15.9375C17.8125 17.1807 18.3064 18.373 19.1854 19.2521C20.0645 20.1311 21.2568 20.625 22.5 20.625Z" fill="black" stroke="black" stroke-width="2" stroke-linejoin="round"/>
</mask>
<g mask="url(#mask0_92_2100)">
<path d="M0 0H45V45H0V0Z" fill="#16B013"/>
</g>
</svg>
