<svg width="204" height="36" viewBox="0 0 204 36" fill="none" xmlns="http://www.w3.org/2000/svg">
<rect width="36" height="36" rx="18" fill="#F2F2F2"/>
<path d="M20.9167 12.1667L15.0834 18L20.9167 23.8334" stroke="#B3B3B3" stroke-width="1.5" stroke-linecap="round" stroke-linejoin="round"/>
<rect x="48" width="36" height="36" rx="18" fill="#00B307"/>
<path d="M63.9231 14V12.336H67.2511V24H65.4111V14H63.9231Z" fill="white"/>
<rect x="84.5" y="0.5" width="35" height="35" rx="17.5" fill="white"/>
<rect x="84.5" y="0.5" width="35" height="35" rx="17.5" stroke="#C2C2C2"/>
<path d="M98.2144 22.832C99.5691 21.744 100.63 20.8533 101.398 20.16C102.166 19.456 102.812 18.7253 103.334 17.968C103.868 17.2 104.134 16.448 104.134 15.712C104.134 15.0187 103.964 14.4747 103.622 14.08C103.292 13.6747 102.753 13.472 102.006 13.472C101.281 13.472 100.716 13.7013 100.31 14.16C99.9158 14.608 99.7024 15.2107 99.6704 15.968H98.2624C98.3051 14.7733 98.6678 13.8507 99.3504 13.2C100.033 12.5493 100.913 12.224 101.99 12.224C103.089 12.224 103.958 12.528 104.598 13.136C105.249 13.744 105.574 14.5813 105.574 15.648C105.574 16.5333 105.308 17.3973 104.774 18.24C104.252 19.072 103.654 19.808 102.982 20.448C102.31 21.0773 101.452 21.8133 100.406 22.656H105.91V23.872H98.2144V22.832Z" fill="#666666"/>
<rect x="120.5" y="0.5" width="35" height="35" rx="17.5" fill="white"/>
<rect x="120.5" y="0.5" width="35" height="35" rx="17.5" stroke="#C2C2C2"/>
<path d="M134.249 15.344C134.324 14.3627 134.702 13.5947 135.385 13.04C136.068 12.4853 136.953 12.208 138.041 12.208C138.766 12.208 139.39 12.3413 139.913 12.608C140.446 12.864 140.846 13.216 141.113 13.664C141.39 14.112 141.529 14.6187 141.529 15.184C141.529 15.8453 141.337 16.416 140.953 16.896C140.58 17.376 140.089 17.6853 139.481 17.824V17.904C140.174 18.0747 140.724 18.4107 141.129 18.912C141.534 19.4133 141.737 20.0693 141.737 20.88C141.737 21.488 141.598 22.0373 141.321 22.528C141.044 23.008 140.628 23.3867 140.073 23.664C139.518 23.9413 138.852 24.08 138.073 24.08C136.942 24.08 136.014 23.7867 135.289 23.2C134.564 22.6027 134.158 21.76 134.073 20.672H135.481C135.556 21.312 135.817 21.8347 136.265 22.24C136.713 22.6453 137.31 22.848 138.057 22.848C138.804 22.848 139.369 22.656 139.753 22.272C140.148 21.8773 140.345 21.3707 140.345 20.752C140.345 19.952 140.078 19.376 139.545 19.024C139.012 18.672 138.206 18.496 137.129 18.496H136.761V17.28H137.145C138.126 17.2693 138.868 17.1093 139.369 16.8C139.87 16.48 140.121 15.9893 140.121 15.328C140.121 14.7627 139.934 14.3093 139.561 13.968C139.198 13.6267 138.676 13.456 137.993 13.456C137.332 13.456 136.798 13.6267 136.393 13.968C135.988 14.3093 135.748 14.768 135.673 15.344H134.249Z" fill="#666666"/>
<rect x="-0.5" y="0.5" width="35" height="35" rx="17.5" transform="matrix(-1 0 0 1 203 0)" fill="white"/>
<rect x="-0.5" y="0.5" width="35" height="35" rx="17.5" transform="matrix(-1 0 0 1 203 0)" stroke="#E6E6E6"/>
<path d="M183.083 12.1667L188.917 18L183.083 23.8334" stroke="#1A1A1A" stroke-width="1.5" stroke-linecap="round" stroke-linejoin="round"/>
</svg>
