<svg width="45" height="45" viewBox="0 0 45 45" fill="none" xmlns="http://www.w3.org/2000/svg">
<path d="M37.5 3.75H7.5C5.4375 3.75 3.76875 5.4375 3.76875 7.5L3.75 41.25L11.25 33.75H37.5C39.5625 33.75 41.25 32.0625 41.25 30V7.5C41.25 5.4375 39.5625 3.75 37.5 3.75ZM37.5 30H9.69375L8.5875 31.1063L7.5 32.1938V7.5H37.5V30ZM19.6875 26.25H33.75V22.5H23.4375L19.6875 26.25ZM26.925 15.2438C27.3 14.8688 27.3 14.2875 26.925 13.9125L23.6063 10.5938C23.2313 10.2188 22.65 10.2188 22.275 10.5938L11.25 21.6187V26.25H15.8813L26.925 15.2438Z" fill="#16B013"/>
</svg>
