<svg width="24" height="24" viewBox="0 0 24 24" fill="none" xmlns="http://www.w3.org/2000/svg">
<path d="M12 17.275L7.85002 19.775C7.66669 19.8916 7.47502 19.9416 7.27502 19.9249C7.07502 19.9083 6.90002 19.8416 6.75002 19.725C6.60002 19.6083 6.48336 19.4626 6.40002 19.288C6.31669 19.1133 6.30002 18.9173 6.35002 18.7L7.45002 13.975L3.77502 10.8C3.60836 10.65 3.50436 10.479 3.46302 10.287C3.42169 10.095 3.43402 9.90762 3.50002 9.72495C3.56602 9.54229 3.66602 9.39228 3.80002 9.27495C3.93402 9.15762 4.11736 9.08262 4.35002 9.04995L9.20002 8.62495L11.075 4.17495C11.1584 3.97495 11.2877 3.82495 11.463 3.72495C11.6384 3.62495 11.8174 3.57495 12 3.57495C12.1827 3.57495 12.3617 3.62495 12.537 3.72495C12.7124 3.82495 12.8417 3.97495 12.925 4.17495L14.8 8.62495L19.65 9.04995C19.8834 9.08328 20.0667 9.15828 20.2 9.27495C20.3334 9.39162 20.4334 9.54162 20.5 9.72495C20.5667 9.90829 20.5794 10.096 20.538 10.288C20.4967 10.48 20.3924 10.6506 20.225 10.8L16.55 13.975L17.65 18.7C17.7 18.9166 17.6834 19.1126 17.6 19.288C17.5167 19.4633 17.4 19.609 17.25 19.725C17.1 19.841 16.925 19.9076 16.725 19.9249C16.525 19.9423 16.3334 19.8923 16.15 19.775L12 17.275Z" fill="#16B013"/>
</svg>
