<svg width="56" height="56" viewBox="0 0 56 56" fill="none" xmlns="http://www.w3.org/2000/svg">
<path d="M28 26.8333C26.4529 26.8333 24.9692 26.2187 23.8752 25.1248C22.7813 24.0308 22.1667 22.5471 22.1667 21C22.1667 19.4529 22.7813 17.9691 23.8752 16.8752C24.9692 15.7812 26.4529 15.1666 28 15.1666C29.5471 15.1666 31.0308 15.7812 32.1248 16.8752C33.2188 17.9691 33.8334 19.4529 33.8334 21C33.8334 21.766 33.6825 22.5245 33.3893 23.2323C33.0962 23.94 32.6665 24.5831 32.1248 25.1248C31.5831 25.6664 30.9401 26.0961 30.2323 26.3893C29.5246 26.6824 28.7661 26.8333 28 26.8333ZM28 4.66663C23.6682 4.66663 19.5137 6.38745 16.4506 9.45055C13.3875 12.5136 11.6667 16.6681 11.6667 21C11.6667 33.25 28 51.3333 28 51.3333C28 51.3333 44.3334 33.25 44.3334 21C44.3334 16.6681 42.6125 12.5136 39.5494 9.45055C36.4863 6.38745 32.3319 4.66663 28 4.66663Z" fill="black"/>
</svg>
