<svg width="50" height="50" viewBox="0 0 50 50" fill="none" xmlns="http://www.w3.org/2000/svg">
<path fill-rule="evenodd" clip-rule="evenodd" d="M20.3709 43.75H29.6292C36.1313 43.75 39.3834 43.75 41.7188 42.2187C42.7267 41.5586 43.5947 40.7062 44.2729 39.7104C45.8334 37.4187 45.8334 34.225 45.8334 27.8416C45.8334 21.4583 45.8334 18.2646 44.2729 15.9729C43.5947 14.977 42.7267 14.1247 41.7188 13.4646C40.2188 12.4791 38.3396 12.1271 35.4625 12.0021C34.0896 12.0021 32.9084 10.9812 32.6396 9.65831C32.4342 8.68928 31.9006 7.82088 31.1289 7.19987C30.3572 6.57886 29.3947 6.24333 28.4042 6.24997H21.5959C19.5375 6.24997 17.7646 7.67706 17.3604 9.65831C17.0917 10.9812 15.9104 12.0021 14.5375 12.0021C11.6625 12.1271 9.78335 12.4812 8.28127 13.4646C7.27406 14.1249 6.40684 14.9772 5.72919 15.9729C4.16669 18.2646 4.16669 21.4562 4.16669 27.8416C4.16669 34.2271 4.16669 37.4166 5.7271 39.7104C6.4021 40.7021 7.26877 41.5541 8.28127 42.2187C10.6167 43.75 13.8688 43.75 20.3709 43.75ZM25 19.3187C20.2063 19.3187 16.3188 23.1333 16.3188 27.8396C16.3188 32.5458 20.2084 36.3666 25 36.3666C29.7917 36.3666 33.6813 32.55 33.6813 27.8437C33.6813 23.1375 29.7917 19.3187 25 19.3187ZM25 22.7271C22.125 22.7271 19.7917 25.0166 19.7917 27.8416C19.7917 30.6646 22.125 32.9541 25 32.9541C27.875 32.9541 30.2084 30.6646 30.2084 27.8416C30.2084 25.0187 27.875 22.7271 25 22.7271ZM34.8375 21.0229C34.8375 20.0812 35.6146 19.3187 36.575 19.3187H38.8875C39.8459 19.3187 40.625 20.0812 40.625 21.0229C40.6206 21.4789 40.4354 21.9146 40.11 22.2341C39.7846 22.5536 39.3456 22.7309 38.8896 22.7271H36.575C36.349 22.7293 36.1248 22.6869 35.9152 22.6025C35.7056 22.518 35.5146 22.3931 35.3533 22.2348C35.192 22.0766 35.0634 21.8881 34.9749 21.6802C34.8864 21.4722 34.8397 21.2489 34.8375 21.0229Z" fill="#16B013"/>
</svg>
