<svg width="34" height="34" viewBox="0 0 34 34" fill="none" xmlns="http://www.w3.org/2000/svg">
<path d="M26.9167 4.25H7.08333C6.33189 4.25 5.61122 4.54851 5.07986 5.07986C4.54851 5.61122 4.25 6.33189 4.25 7.08333V26.9167C4.25 27.6681 4.54851 28.3888 5.07986 28.9201C5.61122 29.4515 6.33189 29.75 7.08333 29.75H26.9167C27.6681 29.75 28.3888 29.4515 28.9201 28.9201C29.4515 28.3888 29.75 27.6681 29.75 26.9167V7.08333C29.75 6.33189 29.4515 5.61122 28.9201 5.07986C28.3888 4.54851 27.6681 4.25 26.9167 4.25ZM26.9167 7.08333V26.9167H7.08333V7.08333H26.9167ZM14.1667 24.0833L8.5 18.4167L10.4975 16.405L14.1667 20.0742L23.5025 10.7383L25.5 12.75" fill="black"/>
</svg>
