<svg width="38" height="38" viewBox="0 0 38 38" fill="none" xmlns="http://www.w3.org/2000/svg">
<path d="M20.1382 21.3425C19.6129 19.7808 19.9631 18.5662 20.1382 17.8721C19.9631 17.1781 19.6129 16.137 19.9631 14.5753C20.4885 13.1872 21.3641 12.4932 21.8894 11.9726C22.0645 11.2785 22.4147 10.2374 23.8157 9.19635C25.0415 8.32877 26.2673 8.32877 26.9677 8.32877C27.1429 8.15525 27.4931 7.98174 27.8433 7.80822V2.77626C28.0184 1.21461 26.7926 0 25.2166 0H2.80184C1.22581 0 0 1.21461 0 2.77626V19.7808C0 21.3425 1.22581 22.5571 2.80184 22.5571H20.8387C20.4885 22.21 20.3134 21.863 20.1382 21.3425ZM3.5023 6.94064V3.47032L14.0092 8.6758L24.5161 3.47032V6.94064L14.0092 12.1461L3.5023 6.94064ZM37.8249 15.4429C37.4747 14.4018 36.5991 14.2283 36.0737 13.7078C35.7235 13.1872 35.7235 12.1461 34.8479 11.6256C33.9723 10.9315 33.0968 11.2785 32.3963 11.105C31.6959 10.9315 31.1705 10.0639 30.1198 10.0639C29.0691 10.0639 28.5438 10.758 27.8433 11.105C27.1429 11.2785 26.2673 10.9315 25.3917 11.6256C24.5161 12.1461 24.6912 13.0137 24.1659 13.7078C23.6406 14.2283 22.765 14.5753 22.4147 15.4429C22.0645 16.484 22.765 17.1781 22.765 17.8721C22.765 18.5662 22.0645 19.2603 22.4147 20.3014C22.765 21.3425 23.6406 21.516 24.1659 22.0365C24.5161 22.5571 24.5161 23.5982 25.3917 24.1187C26.2673 24.8128 27.1429 24.4658 27.8433 24.6393C28.5438 24.8128 29.0691 25.6804 30.1198 25.6804C31.1705 25.6804 31.6959 24.9863 32.3963 24.6393C33.0968 24.4658 33.9723 24.8128 34.8479 24.1187C35.7235 23.4247 35.7235 22.5571 36.0737 22.0365C36.5991 21.516 37.4747 21.169 37.8249 20.3014C38.1751 19.2603 37.4747 18.5662 37.4747 17.8721C37.4747 17.1781 38.1751 16.484 37.8249 15.4429ZM30.1198 23.2511C27.1429 23.2511 24.8664 20.8219 24.8664 18.0457C24.8664 15.2694 27.318 12.8402 30.1198 12.8402C32.9217 12.8402 35.3733 15.2694 35.3733 18.0457C35.3733 20.8219 33.0968 23.2511 30.1198 23.2511ZM32.7465 17.8721C32.7465 19.2603 31.5207 20.4749 30.1198 20.4749C28.7189 20.4749 27.4931 19.2603 27.4931 17.8721C27.4931 16.484 28.7189 15.2694 30.1198 15.2694C31.5207 15.2694 32.7465 16.484 32.7465 17.8721ZM32.3963 27.9361L31.5207 32.621L30.47 38L26.9677 34.7032L22.765 36.6119L24.5161 26.7215C25.2166 27.0685 26.0922 27.242 26.9677 27.242C27.4931 27.589 28.1935 27.9361 28.7189 28.1096C29.0691 28.2831 29.5945 28.2831 30.1198 28.2831C30.9954 28.4566 31.6959 28.2831 32.3963 27.9361ZM38 32.1005L34.4977 30.8858L35.1982 27.0685L36.2488 26.5479L36.424 26.3744L38 32.1005Z" fill="#16B013"/>
</svg>
