<svg width="16" height="16" viewBox="0 0 16 16" fill="none" xmlns="http://www.w3.org/2000/svg">
<path opacity="0.987" fill-rule="evenodd" clip-rule="evenodd" d="M7.209 1.06075C7.934 0.97975 8.363 0.97975 9.142 1.06075C10.5209 1.26485 11.7992 1.90224 12.792 2.88075C12.1211 3.51489 11.4591 4.15828 10.806 4.81075C9.55533 3.75075 8.15933 3.50608 6.618 4.07675C5.48733 4.59675 4.7 5.43942 4.256 6.60475C3.53044 6.06458 2.81433 5.51183 2.108 4.94675C2.05891 4.92091 2.00285 4.91145 1.948 4.91975C3.07 2.75642 4.82333 1.46975 7.208 1.05975" fill="#F44336"/>
<path opacity="0.997" fill-rule="evenodd" clip-rule="evenodd" d="M1.94601 4.92018C2.00267 4.91151 2.05634 4.92051 2.10701 4.94718C2.81334 5.51226 3.52945 6.06501 4.25501 6.60518C4.14083 7.05924 4.06886 7.52288 4.04001 7.99018C4.06467 8.44218 4.13634 8.88585 4.25501 9.32118L2.00001 11.1162C1.01801 9.06418 1.00001 6.99885 1.94601 4.92018Z" fill="#FFC107"/>
<path opacity="0.999" fill-rule="evenodd" clip-rule="evenodd" d="M12.6849 13.2897C11.9828 12.6705 11.2477 12.0897 10.4829 11.5497C11.2496 11.0084 11.7149 10.2657 11.8789 9.32174H8.12195V6.71274C10.2886 6.69474 12.4543 6.71308 14.6189 6.76774C15.0296 8.99774 14.5553 11.0084 13.1959 12.7997C13.0343 12.9716 12.8631 13.1351 12.6849 13.2897Z" fill="#448AFF"/>
<path opacity="0.993" fill-rule="evenodd" clip-rule="evenodd" d="M4.255 9.32129C5.075 11.3593 6.57833 12.3106 8.765 12.1753C9.37883 12.1042 9.96735 11.8898 10.483 11.5493C11.2483 12.0906 11.9823 12.6706 12.685 13.2893C11.5716 14.2897 10.1521 14.8834 8.658 14.9733C8.31854 15.0004 7.97746 15.0004 7.638 14.9733C5.09267 14.6733 3.21333 13.3873 2 11.1153L4.255 9.32129Z" fill="#43A047"/>
</svg>
