<svg width="30" height="28" viewBox="0 0 30 28" fill="none" xmlns="http://www.w3.org/2000/svg">
<path d="M28.8264 2.50163H10.9531C10.4617 1.04929 9.08128 0 7.45824 0C5.83521 0 4.45478 1.04929 3.96339 2.50163H1.1735C0.525417 2.50163 0 3.02448 0 3.66941C0 4.31434 0.525417 4.83719 1.1735 4.83719H3.96347C4.45486 6.28953 5.83529 7.33882 7.45832 7.33882C9.08135 7.33882 10.4618 6.28953 10.9532 4.83719H28.8265C29.4746 4.83719 30 4.31434 30 3.66941C30 3.02448 29.4746 2.50163 28.8264 2.50163V2.50163ZM7.45824 5.00325C6.71917 5.00325 6.11787 4.40488 6.11787 3.66941C6.11787 2.93394 6.71917 2.33557 7.45824 2.33557C8.19732 2.33557 8.79862 2.93394 8.79862 3.66941C8.79862 4.40488 8.19732 5.00325 7.45824 5.00325Z" fill="#0E6E0C"/>
<path d="M28.8264 12.5082H26.0365C25.5451 11.0559 24.1646 10.0066 22.5416 10.0066C20.9186 10.0066 19.5382 11.0559 19.0468 12.5082H1.1735C0.525417 12.5082 0 13.0311 0 13.676C0 14.3209 0.525417 14.8438 1.1735 14.8438H19.0468C19.5382 16.2961 20.9187 17.3454 22.5417 17.3454C24.1646 17.3454 25.5451 16.2961 26.0365 14.8438H28.8265C29.4746 14.8438 30 14.3209 30 13.676C30 13.0311 29.4746 12.5082 28.8264 12.5082ZM22.5417 15.0098C21.8026 15.0098 21.2013 14.4115 21.2013 13.676C21.2013 12.9405 21.8026 12.3422 22.5417 12.3422C23.2807 12.3422 23.8821 12.9405 23.8821 13.676C23.8821 14.4115 23.2807 15.0098 22.5417 15.0098Z" fill="#0E6E0C"/>
<path d="M28.8264 22.5147H15.9809C15.4895 21.0624 14.1091 20.0131 12.4861 20.0131C10.863 20.0131 9.48262 21.0624 8.99123 22.5147H1.1735C0.525417 22.5147 0 23.0375 0 23.6825C0 24.3274 0.525417 24.8503 1.1735 24.8503H8.99123C9.48262 26.3026 10.863 27.3519 12.4861 27.3519C14.1091 27.3519 15.4895 26.3026 15.9809 24.8503H28.8265C29.4746 24.8503 30 24.3274 30 23.6825C30 23.0375 29.4746 22.5147 28.8264 22.5147ZM12.4861 25.0164C11.747 25.0164 11.1457 24.418 11.1457 23.6825C11.1457 22.9471 11.747 22.3487 12.4861 22.3487C13.2252 22.3487 13.8265 22.947 13.8265 23.6825C13.8265 24.4179 13.2252 25.0164 12.4861 25.0164V25.0164Z" fill="#0E6E0C"/>
</svg>
