<svg width="37" height="37" viewBox="0 0 37 37" fill="none" xmlns="http://www.w3.org/2000/svg">
<path d="M11.3333 17.1667H7.08333L4.25 32.75H29.75L26.9167 17.1667H22.6667M11.3333 17.1667V12.9167C11.3333 9.78705 13.8704 7.25 17 7.25C20.1296 7.25 22.6667 9.78705 22.6667 12.9167V17.1667M11.3333 17.1667H22.6667M11.3333 17.1667V21.4167M22.6667 17.1667V21.4167" stroke="#1A1A1A" stroke-width="1.5" stroke-linecap="round" stroke-linejoin="round"/>
<rect x="17.5" y="0.5" width="19" height="19" rx="9.5" fill="#2C742F"/>
<rect x="17.5" y="0.5" width="19" height="19" rx="9.5" stroke="white"/>
<path d="M25.3443 11.95C25.9843 11.3967 26.4876 10.9433 26.8543 10.59C27.2276 10.23 27.5376 9.85667 27.7843 9.47C28.0309 9.08333 28.1543 8.69667 28.1543 8.31C28.1543 7.91 28.0576 7.59667 27.8643 7.37C27.6776 7.14333 27.3809 7.03 26.9743 7.03C26.5809 7.03 26.2743 7.15667 26.0543 7.41C25.8409 7.65667 25.7276 7.99 25.7143 8.41H24.6143C24.6343 7.65 24.8609 7.07 25.2943 6.67C25.7343 6.26333 26.2909 6.06 26.9643 6.06C27.6909 6.06 28.2576 6.26 28.6643 6.66C29.0776 7.06 29.2843 7.59333 29.2843 8.26C29.2843 8.74 29.1609 9.20333 28.9143 9.65C28.6743 10.09 28.3843 10.4867 28.0443 10.84C27.7109 11.1867 27.2843 11.59 26.7643 12.05L26.3143 12.45H29.4843V13.4H24.6243V12.57L25.3443 11.95Z" fill="white"/>
</svg>
