<svg width="34" height="34" viewBox="0 0 34 34" fill="none" xmlns="http://www.w3.org/2000/svg">
<g clip-path="url(#clip0_92_1921)">
<path d="M24.792 1.29932C23.1968 1.32413 21.6363 1.76944 20.2682 2.59028C18.9002 3.41113 17.7729 4.57843 17.0003 5.97432C16.2277 4.57843 15.1005 3.41113 13.7324 2.59028C12.3643 1.76944 10.8039 1.32413 9.20866 1.29932C6.66566 1.4098 4.26974 2.52226 2.54435 4.39365C0.818962 6.26503 -0.0956525 8.74323 0.000327468 11.2868C0.000327468 20.8847 15.5213 31.9702 16.1815 32.4405L17.0003 33.0199L17.8192 32.4405C18.4793 31.973 34.0003 20.8847 34.0003 11.2868C34.0963 8.74323 33.1817 6.26503 31.4563 4.39365C29.7309 2.52226 27.335 1.4098 24.792 1.29932V1.29932ZM17.0003 29.5321C12.3919 26.0896 2.83366 17.6321 2.83366 11.2868C2.73682 9.49433 3.35268 7.73627 4.54693 6.39606C5.74117 5.05585 7.41691 4.24223 9.20866 4.13265C11.0004 4.24223 12.6762 5.05585 13.8704 6.39606C15.0646 7.73627 15.6805 9.49433 15.5837 11.2868H18.417C18.3202 9.49433 18.936 7.73627 20.1303 6.39606C21.3245 5.05585 23.0002 4.24223 24.792 4.13265C26.5837 4.24223 28.2595 5.05585 29.4537 6.39606C30.648 7.73627 31.2638 9.49433 31.167 11.2868C31.167 17.6349 21.6087 26.0896 17.0003 29.5321Z" fill="#0E6E0C"/>
</g>
<defs>
<clipPath id="clip0_92_1921">
<rect width="34" height="34" fill="white"/>
</clipPath>
</defs>
</svg>
