<svg width="40" height="40" viewBox="0 0 40 40" fill="none" xmlns="http://www.w3.org/2000/svg">
<circle cx="20" cy="20" r="20" fill="#16B013"/>
<path d="M26.408 12.152C26.1232 12.152 25.8448 12.2365 25.608 12.3947C25.3712 12.5529 25.1866 12.7778 25.0776 13.0409C24.9686 13.3041 24.9401 13.5936 24.9957 13.8729C25.0512 14.1523 25.1884 14.4088 25.3898 14.6102C25.5912 14.8116 25.8477 14.9488 26.1271 15.0043C26.4064 15.0599 26.6959 15.0314 26.9591 14.9224C27.2222 14.8134 27.4471 14.6288 27.6053 14.392C27.7635 14.1552 27.848 13.8768 27.848 13.592C27.848 13.2101 27.6963 12.8438 27.4262 12.5738C27.1562 12.3037 26.7899 12.152 26.408 12.152ZM31.928 15.056C31.9047 14.0604 31.7182 13.0753 31.376 12.14C31.0709 11.3398 30.596 10.6151 29.984 10.016C29.3898 9.40091 28.6635 8.92901 27.86 8.636C26.9272 8.28339 25.941 8.09265 24.944 8.072C23.672 8 23.264 8 20 8C16.736 8 16.328 8 15.056 8.072C14.059 8.09265 13.0728 8.28339 12.14 8.636C11.338 8.93198 10.6123 9.40347 10.016 10.016C9.40091 10.6102 8.92901 11.3365 8.636 12.14C8.28339 13.0728 8.09265 14.059 8.072 15.056C8 16.328 8 16.736 8 20C8 23.264 8 23.672 8.072 24.944C8.09265 25.941 8.28339 26.9272 8.636 27.86C8.92901 28.6635 9.40091 29.3898 10.016 29.984C10.6123 30.5965 11.338 31.068 12.14 31.364C13.0728 31.7166 14.059 31.9073 15.056 31.928C16.328 32 16.736 32 20 32C23.264 32 23.672 32 24.944 31.928C25.941 31.9073 26.9272 31.7166 27.86 31.364C28.6635 31.071 29.3898 30.5991 29.984 29.984C30.5987 29.3871 31.074 28.6618 31.376 27.86C31.7182 26.9247 31.9047 25.9396 31.928 24.944C31.928 23.672 32 23.264 32 20C32 16.736 32 16.328 31.928 15.056ZM29.768 24.8C29.7593 25.5617 29.6213 26.3164 29.36 27.032C29.1684 27.5542 28.8607 28.0261 28.46 28.412C28.0708 28.8086 27.5999 29.1157 27.08 29.312C26.3644 29.5733 25.6097 29.7113 24.848 29.72C23.648 29.78 23.204 29.792 20.048 29.792C16.892 29.792 16.448 29.792 15.248 29.72C14.4571 29.7348 13.6695 29.613 12.92 29.36C12.4229 29.1537 11.9736 28.8473 11.6 28.46C11.2017 28.0745 10.8978 27.6022 10.712 27.08C10.419 26.3542 10.2565 25.5823 10.232 24.8C10.232 23.6 10.16 23.156 10.16 20C10.16 16.844 10.16 16.4 10.232 15.2C10.2374 14.4213 10.3795 13.6495 10.652 12.92C10.8633 12.4135 11.1875 11.962 11.6 11.6C11.9646 11.1874 12.4151 10.8597 12.92 10.64C13.6515 10.3761 14.4224 10.2381 15.2 10.232C16.4 10.232 16.844 10.16 20 10.16C23.156 10.16 23.6 10.16 24.8 10.232C25.5617 10.2407 26.3164 10.3787 27.032 10.64C27.5773 10.8424 28.0668 11.1714 28.46 11.6C28.8532 11.9686 29.1605 12.4193 29.36 12.92C29.6267 13.6507 29.7647 14.4221 29.768 15.2C29.828 16.4 29.84 16.844 29.84 20C29.84 23.156 29.828 23.6 29.768 24.8ZM20 13.844C18.783 13.8464 17.594 14.2094 16.5832 14.8873C15.5724 15.5652 14.7853 16.5274 14.3212 17.6525C13.8571 18.7776 13.7369 20.015 13.9758 21.2083C14.2146 22.4017 14.8019 23.4974 15.6633 24.3572C16.5247 25.2169 17.6216 25.802 18.8154 26.0386C20.0092 26.2751 21.2464 26.1525 22.3706 25.6862C23.4947 25.22 24.4555 24.4309 25.1314 23.4188C25.8073 22.4068 26.168 21.217 26.168 20C26.1696 19.1901 26.011 18.3879 25.7015 17.6395C25.3919 16.8912 24.9375 16.2114 24.3642 15.6393C23.791 15.0672 23.1103 14.614 22.3614 14.3059C21.6124 13.9978 20.8099 13.8408 20 13.844ZM20 23.996C19.2097 23.996 18.4371 23.7616 17.7799 23.3226C17.1228 22.8835 16.6106 22.2594 16.3082 21.5292C16.0057 20.799 15.9266 19.9956 16.0808 19.2204C16.235 18.4453 16.6156 17.7333 17.1744 17.1744C17.7333 16.6156 18.4453 16.235 19.2204 16.0808C19.9956 15.9266 20.799 16.0057 21.5292 16.3082C22.2594 16.6106 22.8835 17.1228 23.3226 17.7799C23.7616 18.4371 23.996 19.2097 23.996 20C23.996 20.5248 23.8926 21.0444 23.6918 21.5292C23.491 22.014 23.1967 22.4545 22.8256 22.8256C22.4545 23.1967 22.014 23.491 21.5292 23.6918C21.0444 23.8926 20.5248 23.996 20 23.996Z" fill="white"/>
</svg>
