<svg width="40" height="40" viewBox="0 0 40 40" fill="none" xmlns="http://www.w3.org/2000/svg">
<circle cx="20" cy="20" r="20" fill="#16B013"/>
<path d="M11 16.6141C11 15.6064 11.2047 14.6058 11.6163 13.6148C12.0279 12.6238 12.6163 11.7024 13.3837 10.8554C14.1512 10.0084 15.1581 9.31971 16.407 8.79183C17.6558 8.26394 19.0395 8 20.5581 8C23.0233 8 25.0465 8.78463 26.6279 10.3515C28.2093 11.9184 29 13.766 29 15.8943C29 18.6297 28.3302 20.89 26.9884 22.6728C25.6465 24.4556 23.914 25.3482 21.7907 25.3482C21.093 25.3482 20.4372 25.1803 19.8256 24.8444C19.214 24.5084 18.7837 24.1005 18.5349 23.6206L17.6047 27.4118C17.5279 27.7165 17.4256 28.0237 17.3023 28.3356C17.1791 28.6475 17.0419 28.9475 16.8953 29.2354C16.7488 29.5233 16.6 29.7945 16.4535 30.0512C16.307 30.308 16.1581 30.5479 16.0116 30.7711C15.8651 30.9942 15.7372 31.1838 15.6279 31.335C15.5186 31.4861 15.4186 31.6181 15.3256 31.7309L15.186 31.9228C15.1395 31.9876 15.0767 32.0116 15 31.9948C14.9233 31.978 14.8767 31.93 14.8605 31.8508C14.8605 31.834 14.8488 31.7237 14.8256 31.5149C14.8023 31.3062 14.7791 31.0878 14.7558 30.8551C14.7326 30.6223 14.7093 30.3224 14.686 29.9553C14.6628 29.5881 14.6558 29.2306 14.6628 28.8875C14.6698 28.5444 14.693 28.1628 14.7326 27.7477C14.7721 27.3326 14.8302 26.9487 14.907 26.596C15.0767 25.8449 15.6512 23.3399 16.6279 19.0856C16.5047 18.8289 16.4023 18.5217 16.3256 18.1618C16.2488 17.8019 16.2093 17.5091 16.2093 17.286L16.186 16.9261C16.186 15.9015 16.4372 15.0497 16.9419 14.3706C17.4465 13.6916 18.0535 13.3508 18.7674 13.3508C19.3419 13.3508 19.786 13.5476 20.1047 13.9387C20.4233 14.3298 20.5814 14.8217 20.5814 15.4144C20.5814 15.7815 20.5163 16.235 20.3837 16.7701C20.2512 17.3052 20.0767 17.9219 19.8605 18.6177C19.6442 19.3136 19.4884 19.8774 19.3953 20.3093C19.2395 21.0292 19.3767 21.653 19.8023 22.1809C20.2279 22.7088 20.7977 22.9728 21.5116 22.9728C22.7372 22.9728 23.7488 22.2577 24.5465 20.8252C25.3442 19.3927 25.7442 17.6627 25.7442 15.6304C25.7442 14.0779 25.2558 12.811 24.2791 11.8272C23.3023 10.8434 21.9372 10.3515 20.186 10.3515C18.2326 10.3515 16.6465 10.9994 15.4302 12.2951C14.214 13.5908 13.6047 15.1433 13.6047 16.9501C13.6047 18.0226 13.9 18.9248 14.4884 19.6615C14.6907 19.9014 14.7512 20.1582 14.6744 20.4293C14.6442 20.5085 14.5977 20.6933 14.5349 20.9812C14.4721 21.2691 14.4256 21.4539 14.3953 21.5331C14.3651 21.7082 14.286 21.8258 14.1628 21.881C14.0395 21.9362 13.9 21.9338 13.7442 21.869C12.8302 21.4851 12.1442 20.8252 11.686 19.8894C11.2279 18.9536 11 17.8619 11 16.6141Z" fill="white"/>
</svg>
