<svg width="95" height="23" viewBox="0 0 95 23" fill="none" xmlns="http://www.w3.org/2000/svg">
<path d="M10.024 22.428L5.93601 15.008H4.78801V22.428H7.6443e-06V2.77198H8.03601C9.58534 2.77198 10.9013 3.04264 11.984 3.58398C13.0853 4.12531 13.9067 4.87198 14.448 5.82398C14.9893 6.75731 15.26 7.80264 15.26 8.95998C15.26 10.2666 14.8867 11.4333 14.14 12.46C13.412 13.4866 12.3293 14.2146 10.892 14.644L15.428 22.428H10.024ZM4.78801 11.62H7.75601C8.63334 11.62 9.28667 11.4053 9.71601 10.976C10.164 10.5466 10.388 9.93998 10.388 9.15598C10.388 8.40931 10.164 7.82131 9.71601 7.39198C9.28667 6.96265 8.63334 6.74798 7.75601 6.74798H4.78801V11.62ZM32.3936 14.364C32.3936 14.812 32.3656 15.2786 32.3096 15.764H21.4736C21.5483 16.7346 21.8563 17.4813 22.3976 18.004C22.9576 18.508 23.639 18.76 24.4416 18.76C25.6363 18.76 26.467 18.256 26.9336 17.248H32.0296C31.7683 18.2746 31.2923 19.1986 30.6016 20.02C29.9296 20.8413 29.0803 21.4853 28.0536 21.952C27.027 22.4186 25.879 22.652 24.6096 22.652C23.079 22.652 21.7163 22.3253 20.5216 21.672C19.327 21.0186 18.3936 20.0853 17.7216 18.872C17.0496 17.6586 16.7136 16.24 16.7136 14.616C16.7136 12.992 17.0403 11.5733 17.6936 10.36C18.3656 9.14664 19.299 8.21331 20.4936 7.55998C21.6883 6.90664 23.0603 6.57998 24.6096 6.57998C26.1216 6.57998 27.4656 6.89731 28.6416 7.53198C29.8176 8.16664 30.7323 9.07198 31.3856 10.248C32.0576 11.424 32.3936 12.796 32.3936 14.364ZM27.4936 13.104C27.4936 12.2826 27.2136 11.6293 26.6536 11.144C26.0936 10.6586 25.3936 10.416 24.5536 10.416C23.751 10.416 23.0696 10.6493 22.5096 11.116C21.9683 11.5826 21.6323 12.2453 21.5016 13.104H27.4936ZM52.7715 2.77198L45.7995 22.428H39.8075L32.8355 2.77198H37.9315L42.8035 17.612L47.7035 2.77198H52.7715ZM56.5807 5.17998C55.7407 5.17998 55.05 4.93731 54.5087 4.45198C53.986 3.94798 53.7247 3.33198 53.7247 2.60398C53.7247 1.85731 53.986 1.24131 54.5087 0.755977C55.05 0.251977 55.7407 -2.31266e-05 56.5807 -2.31266e-05C57.402 -2.31266e-05 58.074 0.251977 58.5967 0.755977C59.138 1.24131 59.4087 1.85731 59.4087 2.60398C59.4087 3.33198 59.138 3.94798 58.5967 4.45198C58.074 4.93731 57.402 5.17998 56.5807 5.17998ZM58.9607 6.80398V22.428H54.1727V6.80398H58.9607ZM66.6185 9.01598C67.0665 8.28798 67.7105 7.69998 68.5505 7.25198C69.3905 6.80398 70.3518 6.57998 71.4345 6.57998C72.7225 6.57998 73.8891 6.90664 74.9345 7.55998C75.9798 8.21331 76.8011 9.14664 77.3985 10.36C78.0145 11.5733 78.3225 12.9826 78.3225 14.588C78.3225 16.1933 78.0145 17.612 77.3985 18.844C76.8011 20.0573 75.9798 21 74.9345 21.672C73.8891 22.3253 72.7225 22.652 71.4345 22.652C70.3331 22.652 69.3718 22.4373 68.5505 22.008C67.7291 21.56 67.0851 20.972 66.6185 20.244V22.428H61.8305V1.70798H66.6185V9.01598ZM73.4505 14.588C73.4505 13.3933 73.1145 12.46 72.4425 11.788C71.7891 11.0973 70.9771 10.752 70.0065 10.752C69.0545 10.752 68.2425 11.0973 67.5705 11.788C66.9171 12.4786 66.5905 13.4213 66.5905 14.616C66.5905 15.8106 66.9171 16.7533 67.5705 17.444C68.2425 18.1346 69.0545 18.48 70.0065 18.48C70.9585 18.48 71.7705 18.1346 72.4425 17.444C73.1145 16.7346 73.4505 15.7826 73.4505 14.588ZM94.9624 14.364C94.9624 14.812 94.9344 15.2786 94.8784 15.764H84.0424C84.117 16.7346 84.425 17.4813 84.9664 18.004C85.5264 18.508 86.2077 18.76 87.0104 18.76C88.205 18.76 89.0357 18.256 89.5024 17.248H94.5984C94.3371 18.2746 93.8611 19.1986 93.1704 20.02C92.4984 20.8413 91.6491 21.4853 90.6224 21.952C89.5957 22.4186 88.4477 22.652 87.1784 22.652C85.6477 22.652 84.285 22.3253 83.0904 21.672C81.8957 21.0186 80.9624 20.0853 80.2904 18.872C79.6184 17.6586 79.2824 16.24 79.2824 14.616C79.2824 12.992 79.609 11.5733 80.2624 10.36C80.9344 9.14664 81.8677 8.21331 83.0624 7.55998C84.257 6.90664 85.629 6.57998 87.1784 6.57998C88.6904 6.57998 90.0344 6.89731 91.2104 7.53198C92.3864 8.16664 93.3011 9.07198 93.9544 10.248C94.6264 11.424 94.9624 12.796 94.9624 14.364ZM90.0624 13.104C90.0624 12.2826 89.7824 11.6293 89.2224 11.144C88.6624 10.6586 87.9624 10.416 87.1224 10.416C86.3197 10.416 85.6384 10.6493 85.0784 11.116C84.537 11.5826 84.201 12.2453 84.0704 13.104H90.0624Z" fill="#16B013"/>
</svg>
