<svg width="38" height="38" viewBox="0 0 38 38" fill="none" xmlns="http://www.w3.org/2000/svg">
<path d="M19 35.625C17.6806 35.625 16.559 35.1632 15.6354 34.2396C14.7118 33.316 14.25 32.1944 14.25 30.875C14.25 29.8458 14.5471 28.9222 15.1414 28.1042C15.7357 27.2861 16.4941 26.7188 17.4167 26.4021V23.5125C17.1264 23.4069 16.8493 23.2819 16.5854 23.1373C16.3215 22.9926 16.084 22.8142 15.8729 22.6021L13.3792 24.0667C13.4056 24.1986 13.4256 24.3374 13.4393 24.4831C13.4531 24.6288 13.4594 24.7802 13.4583 24.9375C13.4583 26.2569 12.9965 27.3785 12.0729 28.3021C11.1493 29.2257 10.0278 29.6875 8.70834 29.6875C7.3889 29.6875 6.26737 29.2257 5.34376 28.3021C4.42015 27.3785 3.95834 26.2569 3.95834 24.9375C3.95834 23.6181 4.42015 22.4965 5.34376 21.5729C6.26737 20.6493 7.3889 20.1875 8.70834 20.1875C9.31529 20.1875 9.88265 20.2867 10.4104 20.4852C10.9382 20.6836 11.4132 20.967 11.8354 21.3354L14.2896 19.9104C14.2632 19.7785 14.2431 19.6333 14.2294 19.475C14.2157 19.3167 14.2094 19.1583 14.2104 19C14.2115 18.8417 14.2183 18.6897 14.231 18.544C14.2437 18.3983 14.2632 18.2601 14.2896 18.1292L11.8354 16.6646C11.4132 17.034 10.9382 17.318 10.4104 17.5164C9.88265 17.7149 9.31529 17.8136 8.70834 17.8125C7.3889 17.8125 6.26737 17.3507 5.34376 16.4271C4.42015 15.5035 3.95834 14.3819 3.95834 13.0625C3.95834 11.7431 4.42015 10.6215 5.34376 9.69792C6.26737 8.77431 7.3889 8.3125 8.70834 8.3125C10.0278 8.3125 11.1493 8.77431 12.0729 9.69792C12.9965 10.6215 13.4583 11.7431 13.4583 13.0625C13.4583 13.2208 13.452 13.3792 13.4393 13.5375C13.4267 13.6958 13.4066 13.841 13.3792 13.9729L15.8729 15.3979C16.084 15.1868 16.3215 15.0153 16.5854 14.8833C16.8493 14.7514 17.1264 14.6326 17.4167 14.5271V11.6375C16.4931 11.3208 15.7346 10.7471 15.1414 9.91642C14.5482 9.08569 14.2511 8.15522 14.25 7.125C14.25 5.80556 14.7118 4.68403 15.6354 3.76042C16.559 2.83681 17.6806 2.375 19 2.375C20.3195 2.375 21.441 2.83681 22.3646 3.76042C23.2882 4.68403 23.75 5.80556 23.75 7.125C23.75 8.15417 23.4534 9.08464 22.8602 9.91642C22.267 10.7482 21.508 11.3219 20.5833 11.6375V14.5271C20.8736 14.6326 21.1444 14.7583 21.3956 14.9039C21.6468 15.0496 21.8775 15.2274 22.0875 15.4375L24.6208 13.9333C24.5945 13.8014 24.5744 13.6631 24.5607 13.5185C24.547 13.3739 24.5406 13.2219 24.5417 13.0625C24.5417 11.7431 25.0035 10.6215 25.9271 9.69792C26.8507 8.77431 27.9722 8.3125 29.2917 8.3125C30.6111 8.3125 31.7326 8.77431 32.6563 9.69792C33.5799 10.6215 34.0417 11.7431 34.0417 13.0625C34.0417 14.3819 33.5799 15.5035 32.6563 16.4271C31.7326 17.3507 30.6111 17.8125 29.2917 17.8125C28.6847 17.8125 28.1242 17.7138 27.6102 17.5164C27.0961 17.319 26.6275 17.0351 26.2042 16.6646L23.6313 18.1688C23.6576 18.3007 23.6777 18.4395 23.6914 18.5852C23.7052 18.7308 23.7115 18.8691 23.7104 19C23.7094 19.1309 23.703 19.276 23.6914 19.4354C23.6798 19.5948 23.6598 19.7399 23.6313 19.8708L26.2042 21.3354C26.6264 20.966 27.0951 20.6826 27.6102 20.4852C28.1253 20.2878 28.6858 20.1886 29.2917 20.1875C30.6111 20.1875 31.7326 20.6493 32.6563 21.5729C33.5799 22.4965 34.0417 23.6181 34.0417 24.9375C34.0417 26.2569 33.5799 27.3785 32.6563 28.3021C31.7326 29.2257 30.6111 29.6875 29.2917 29.6875C27.9722 29.6875 26.8507 29.2257 25.9271 28.3021C25.0035 27.3785 24.5417 26.2569 24.5417 24.9375C24.5417 24.7792 24.5485 24.6272 24.5623 24.4815C24.576 24.3358 24.5955 24.1976 24.6208 24.0667L22.0875 22.6021C21.8764 22.8132 21.6458 22.9847 21.3956 23.1167C21.1454 23.2486 20.8747 23.3674 20.5833 23.4729V26.4021C21.507 26.7188 22.2659 27.2861 22.8602 28.1042C23.4545 28.9222 23.7511 29.8458 23.75 30.875C23.75 32.1944 23.2882 33.316 22.3646 34.2396C21.441 35.1632 20.3195 35.625 19 35.625ZM19 32.4583C19.4486 32.4583 19.8249 32.3063 20.1289 32.0023C20.4329 31.6983 20.5844 31.3226 20.5833 30.875C20.5823 30.4274 20.4303 30.0517 20.1273 29.7477C19.8244 29.4437 19.4486 29.2917 19 29.2917C18.5514 29.2917 18.1756 29.4437 17.8727 29.7477C17.5697 30.0517 17.4177 30.4274 17.4167 30.875C17.4156 31.3226 17.5676 31.6989 17.8727 32.0039C18.1777 32.309 18.5535 32.4604 19 32.4583ZM8.70834 26.5208C9.15695 26.5208 9.53326 26.3688 9.83726 26.0648C10.1413 25.7608 10.2927 25.3851 10.2917 24.9375C10.2906 24.4899 10.1386 24.1142 9.83568 23.8102C9.53273 23.5062 9.15695 23.3542 8.70834 23.3542C8.25973 23.3542 7.88396 23.5062 7.58101 23.8102C7.27807 24.1142 7.12607 24.4899 7.12501 24.9375C7.12395 25.3851 7.27595 25.7614 7.58101 26.0664C7.88607 26.3715 8.26184 26.5229 8.70834 26.5208ZM29.2917 26.5208C29.7403 26.5208 30.1166 26.3688 30.4206 26.0648C30.7246 25.7608 30.8761 25.3851 30.875 24.9375C30.874 24.4899 30.722 24.1142 30.419 23.8102C30.1161 23.5062 29.7403 23.3542 29.2917 23.3542C28.8431 23.3542 28.4673 23.5062 28.1643 23.8102C27.8614 24.1142 27.7094 24.4899 27.7083 24.9375C27.7073 25.3851 27.8593 25.7614 28.1643 26.0664C28.4694 26.3715 28.8452 26.5229 29.2917 26.5208ZM19 20.5833C19.4486 20.5833 19.8249 20.4313 20.1289 20.1273C20.4329 19.8233 20.5844 19.4476 20.5833 19C20.5823 18.5524 20.4303 18.1767 20.1273 17.8727C19.8244 17.5687 19.4486 17.4167 19 17.4167C18.5514 17.4167 18.1756 17.5687 17.8727 17.8727C17.5697 18.1767 17.4177 18.5524 17.4167 19C17.4156 19.4476 17.5676 19.8239 17.8727 20.1289C18.1777 20.434 18.5535 20.5854 19 20.5833ZM8.70834 14.6458C9.15695 14.6458 9.53326 14.4938 9.83726 14.1898C10.1413 13.8858 10.2927 13.5101 10.2917 13.0625C10.2906 12.6149 10.1386 12.2392 9.83568 11.9352C9.53273 11.6312 9.15695 11.4792 8.70834 11.4792C8.25973 11.4792 7.88396 11.6312 7.58101 11.9352C7.27807 12.2392 7.12607 12.6149 7.12501 13.0625C7.12395 13.5101 7.27595 13.8864 7.58101 14.1914C7.88607 14.4965 8.26184 14.6479 8.70834 14.6458ZM29.2917 14.6458C29.7403 14.6458 30.1166 14.4938 30.4206 14.1898C30.7246 13.8858 30.8761 13.5101 30.875 13.0625C30.874 12.6149 30.722 12.2392 30.419 11.9352C30.1161 11.6312 29.7403 11.4792 29.2917 11.4792C28.8431 11.4792 28.4673 11.6312 28.1643 11.9352C27.8614 12.2392 27.7094 12.6149 27.7083 13.0625C27.7073 13.5101 27.8593 13.8864 28.1643 14.1914C28.4694 14.4965 28.8452 14.6479 29.2917 14.6458ZM19 8.70833C19.4486 8.70833 19.8249 8.55633 20.1289 8.25233C20.4329 7.94833 20.5844 7.57256 20.5833 7.125C20.5823 6.67744 20.4303 6.30167 20.1273 5.99767C19.8244 5.69367 19.4486 5.54167 19 5.54167C18.5514 5.54167 18.1756 5.69367 17.8727 5.99767C17.5697 6.30167 17.4177 6.67744 17.4167 7.125C17.4156 7.57256 17.5676 7.94886 17.8727 8.25392C18.1777 8.55897 18.5535 8.71044 19 8.70833Z" fill="#16B013"/>
</svg>
