<svg width="40" height="40" viewBox="0 0 40 40" fill="none" xmlns="http://www.w3.org/2000/svg">
<circle cx="20" cy="20" r="20" fill="#16B013"/>
<path fill-rule="evenodd" clip-rule="evenodd" d="M24.5922 8.02016C24.5936 8.38625 24.7005 13.677 30.2528 14.007C30.2528 15.5328 30.2547 16.639 30.2547 18.095C29.8342 18.1193 26.5994 17.8845 24.5861 16.0887L24.58 24.0471C24.6565 29.5709 20.5915 32.9323 15.2782 31.7712C6.11605 29.0304 9.16057 15.4414 18.3602 16.8959C18.3602 21.2829 18.3626 16.8945 18.3626 21.2829C14.562 20.7237 13.2907 23.8854 14.3009 26.149C15.2196 28.2101 19.0038 28.6568 20.3238 25.7492C20.4733 25.1801 20.5479 24.5313 20.5479 23.8029V8L24.5922 8.02016Z" fill="white"/>
</svg>
